<?xml version="1.0" encoding="UTF-8"?><svg id="a" xmlns="http://www.w3.org/2000/svg" viewBox="0 0 307.04 383.3"><defs><style>.b{fill:#fff;}</style></defs><path class="b" d="M306.86,154.24c-.09-8.57-.79-17.21-2.09-25.68-9.54-62.48-59.34-113.86-121.57-125.63-6.33-1.2-12.75-1.96-19.12-2.93h-20.96c-.95,.22-1.89,.56-2.85,.64-19.1,1.55-37.45,6.25-54.34,15.2C30.21,45.38,1.58,91.93,.32,154.99c-.49,24.44-.39,48.9,.06,73.34,.2,10.79,.97,21.76,3.11,32.31,17.88,88.08,107.69,141.83,193.79,116.3,65.16-19.32,109.34-78.83,109.65-147.85,.11-24.95,.19-49.9-.08-74.84Zm-28.75,37.65h-.12c0,14.09,.28,28.2-.05,42.28-1.34,58.39-45.4,108.9-103.12,118.46-64.78,10.73-126.08-28.96-141.81-92.24-2.35-9.47-3.53-19.43-3.7-29.19-.47-27.43-.55-54.89,0-82.32,1.15-58.11,45.54-108.84,102.89-118.24,66.79-10.95,128.38,30.37,143.02,96.38,2.03,9.16,2.42,18.77,2.78,28.21,.46,12.21,.11,24.44,.11,36.67Z"/><path class="b" d="M153.47,81.51c-8.22,.05-14.12,6.26-14.17,15.04-.06,9.22-.01,18.44-.01,27.66,0,9.34-.03,18.69,0,28.03,.04,8.98,5.99,15.38,14.25,15.41,8.28,.03,14.34-6.35,14.36-15.3,.04-18.56,.05-37.13,0-55.69-.02-8.99-6.02-15.21-14.43-15.16Z"/></svg>